<svg width="20" height="20" viewBox="0 0 20 20" fill="none" xmlns="http://www.w3.org/2000/svg">
<path d="M6.81112 6.11114C6.81112 4.34913 8.238 2.92225 10 2.92225C11.762 2.92225 13.1889 4.34913 13.1889 6.11114C13.1889 7.87315 11.762 9.30003 10 9.30003C8.238 9.30003 6.81112 7.87315 6.81112 6.11114ZM2.92223 14.8611C2.92223 14.4717 3.11175 14.0788 3.54723 13.6769C3.98746 13.2706 4.63073 12.9041 5.39799 12.5967C6.93364 11.9815 8.7896 11.6722 10 11.6722C11.2104 11.6722 13.0664 11.9815 14.602 12.5967C15.3693 12.9041 16.0126 13.2706 16.4528 13.6769C16.8883 14.0788 17.0778 14.4717 17.0778 14.8611V17.0778H2.92223V14.8611Z"  stroke-width="1.4"/>
</svg>
